[img]http://img692.imageshack.us/img692/1682/underworld2003.png[/img]

[b][size=200][color=black]PLOT[/color][/size][/b]

[code]Selene, a beautiful vampire warrior, is entrenched 
in a war between the vampire and werewolf races. Although 
she is aligned with the vampires, she falls in love with 
Michael, a werewolf who longs for the war to end.[/code]

[b][size=200][color=black]IMDB[/color][/size][/b]

[code]http://www.imdb.com/title/tt0320691/[/code]

[b][size=200][color=black]MOVIE INFO[/color][/size][/b]

[code]Underworld EXTENDED [2003] BRRip x264 AAC-V3nom

Format                                   : MPEG-4
Format profile                           : Base Media / Version 2
Codec ID                                 : mp42
File size                                : 343 MiB
Duration                                 : 2h 13mn
Overall bit rate mode                    : Variable
Overall bit rate                         : 359 Kbps
Encoded date                             : UTC 2012-12-28 10:30:47
Tagged date                              : UTC 2012-12-28 11:45:03

Video
ID                                       : 1
Format                                   : AVC
Format/Info                              : Advanced Video Codec
Format profile                           : Main@L2.1
Format settings, CABAC                   : Yes
Format settings, ReFrames                : 4 frames
Codec ID                                 : avc1
Codec ID/Info                            : Advanced Video Coding
Duration                                 : 2h 13mn
Bit rate mode                            : Variable
Bit rate                                 : 234 Kbps
Width                                    : 640 pixels
Height                                   : 272 pixels
Display aspect ratio                     : 2.129
Frame rate mode                          : Variable
Frame rate                               : 23.976 fps
Minimum frame rate                       : 5.994 fps
Maximum frame rate                       : 23.981 fps
Color space                              : YUV
Chroma subsampling                       : 4:2:0
Bit depth                                : 8 bits
Scan type                                : Progressive
Bits/(Pixel*Frame)                       : 0.056
Stream size                              : 216 MiB (63%)
Writing library                          : x264 core 112

Audio
ID                                       : 2
Format                                   : AAC
Format/Info                              : Advanced Audio Codec
Format profile                           : LC
Codec ID                                 : 40
Duration                                 : 2h 13mn
Bit rate mode                            : Variable
Bit rate                                 : 128 Kbps
Maximum bit rate                         : 230 Kbps
Channel(s)                               : 2 channels
Channel positions                        : Front: L R
Sampling rate                            : 48.0 KHz
Compression mode                         : Lossy
Delay relative to video                  : 209ms
Stream size                              : 122 MiB (36%)
Language                                 : English
Encoded date                             : UTC 2012-12-28 10:30:47
Tagged date                              : UTC 2012-12-28 11:44:57[/code]

[b][size=200][color=black]SOURCE[/color][/size][/b]

[code]Underworld EXTENDED (2003) 1080p BrRip x264 - YIFY(Thanks)[/code]

[b][size=200][color=black]SCREENSHOTS[/color][/size][/b]

[img]http://img88.imageshack.us/img88/7184/underworldextended2003b.jpg[/img]

[img]http://kastatic.com/i2/users/133df62bbf28e62494bb17fe11078f1a.gif[/img][img]http://kastatic.com/i2/users/133df62bbf28e62494bb17fe11078f1a.gif[/img]